<?xml version="1.0" encoding="UTF-8"?>
<svg version="1.1" xmlns="http://www.w3.org/2000/svg" width="586" height="557">
<path d="M0 0 C0.85442932 -0.00199105 1.70885864 -0.0039821 2.58917975 -0.00603348 C3.52302882 -0.00312064 4.45687789 -0.0002078 5.41902542 0.00279331 C6.91260681 0.00151167 6.91260681 0.00151167 8.43636155 0.00020415 C11.78210245 -0.00144661 15.12779352 0.00406416 18.47352982 0.00952244 C20.86817804 0.00980442 23.26282635 0.00964636 25.65747452 0.00907993 C31.49098707 0.00882227 37.32448323 0.01316376 43.15799204 0.01951759 C49.94567161 0.02666372 56.73334884 0.02816255 63.52103165 0.02930576 C75.62580664 0.03149449 87.73057489 0.03814972 99.83534622 0.04760838 C111.59413494 0.05678713 123.35292183 0.0638657 135.11171341 0.06811619 C135.83650244 0.06837891 136.56129147 0.06864164 137.30804381 0.06891232 C140.94409057 0.07021736 144.58013735 0.07148106 148.21618414 0.07272422 C178.38172346 0.08309125 208.54725461 0.10077903 238.71278763 0.12304783 C238.71278763 0.78304783 238.71278763 1.44304783 238.71278763 2.12304783 C239.49009232 1.97222752 240.267397 1.8214072 241.06825638 1.66601658 C264.80543949 -1.87039119 289.50760694 0.4531169 312.71278763 6.12304783 C313.41742142 6.29143162 314.12205521 6.45981541 314.84804153 6.63330173 C339.15002032 12.60713249 362.28584135 24.42901951 381.71278763 40.12304783 C382.48501663 40.74300632 382.48501663 40.74300632 383.27284622 41.37548923 C394.90641509 50.76925164 407.60287643 61.43140432 415.71278763 74.12304783 C415.71278763 75.11304783 415.71278763 76.10304783 415.71278763 77.12304783 C414.25429153 78.52661228 414.25429153 78.52661228 412.18935013 79.98632908 C411.04236649 80.81124851 411.04236649 80.81124851 409.87221146 81.65283298 C409.03585159 82.24112888 408.19949173 82.82942478 407.33778763 83.43554783 C405.58235201 84.69774644 403.82848259 85.96212574 402.07606888 87.22851658 C401.17968704 87.87482029 400.28330521 88.521124 399.35976028 89.18701267 C395.34726054 92.12181464 391.4343499 95.17756186 387.52528763 98.24804783 C386.05036372 99.39952066 384.57510512 100.55056492 383.09950638 101.70117283 C380.87812081 103.4338238 378.65694952 105.16672116 376.43788528 106.9023447 C374.24543013 108.61099651 372.04312941 110.30607736 369.83778763 111.99804783 C369.17754593 112.51641209 368.51730423 113.03477634 367.83705521 113.56884861 C364.43685355 116.15825006 363.11716237 117.12304783 358.71278763 117.12304783 C356.70497513 115.03320408 356.70497513 115.03320408 354.58778763 112.18554783 C336.09119649 88.7044857 306.89490777 75.34395868 277.65028763 71.74804783 C247.08334914 68.61177696 215.59157614 77.80128002 191.71278763 97.12304783 C188.29160809 100.03533321 184.9867246 103.04701723 181.71278763 106.12304783 C180.8252681 106.89648533 180.8252681 106.89648533 179.91981888 107.68554783 C168.93738788 117.70277705 161.87965721 131.83512255 155.71278763 145.12304783 C157.69278763 145.45304783 159.67278763 145.78304783 161.71278763 146.12304783 C161.65091263 145.09179783 161.58903763 144.06054783 161.52528763 142.99804783 C161.783992 137.65149081 163.19452045 134.60028076 167.02528763 130.87304783 C172.24440492 127.47455285 176.30759659 126.89431676 182.36903763 127.44336033 C189.53663578 129.52196379 193.13063659 134.89393766 197.21278763 140.68554783 C198.45210368 142.4057925 199.69169468 144.12583912 200.93153763 145.84570408 C201.55931107 146.72371677 202.1870845 147.60172947 202.83388138 148.50634861 C205.75464661 152.57401516 208.734898 156.59712573 211.71278763 160.62304783 C212.87844659 162.20486219 214.04381032 163.78689415 215.20888138 165.36914158 C217.5529078 168.55055394 219.89949645 171.73005399 222.24794388 174.90820408 C227.9597194 182.64156751 233.64913198 190.38960687 239.27528763 198.18554783 C239.80195023 198.91483494 240.32861282 199.64412205 240.87123489 200.39550877 C243.67333527 204.28028756 246.46276417 208.1736706 249.24013138 212.07617283 C250.11206131 213.29614964 250.11206131 213.29614964 251.00160599 214.54077244 C252.10922083 216.09086432 253.21315004 217.6435992 254.31264114 219.19946384 C257.18558539 223.21293982 260.11061975 226.74601544 263.71278763 230.12304783 C264.04278763 230.45304783 264.37278763 230.78304783 264.71278763 231.12304783 C268.11055042 231.80260039 270.0943629 231.52549799 273.00575638 229.63086033 C275.28318953 227.8401217 277.49675466 225.98873654 279.71278763 224.12304783 C281.19778763 223.13304783 281.19778763 223.13304783 282.71278763 222.12304783 C282.23454146 215.95618935 281.56482611 209.84640164 280.67372513 203.72461033 C280.4037471 201.86183445 280.4037471 201.86183445 280.12831497 199.96142673 C279.99119095 199.0247617 279.85406693 198.08809666 279.71278763 197.12304783 C280.62455765 197.13988621 281.53632767 197.15672459 282.47572708 197.17407322 C285.91225096 197.2156924 289.34398205 197.21614882 292.78041458 197.1901865 C294.25735685 197.18713464 295.73442833 197.19972589 297.21107864 197.229249 C306.87615591 197.40950646 313.18510277 196.3638589 320.5064888 189.40210056 C321.23456741 188.65001316 321.96264603 187.89792576 322.71278763 187.12304783 C323.73712002 186.19865749 324.76684225 185.28012437 325.80653763 184.37304783 C326.60060013 183.63054783 327.39466263 182.88804783 328.21278763 182.12304783 C332.66005875 178.02953691 337.25996226 174.19862284 341.96278763 170.40429783 C345.75184169 167.26110525 349.34548115 163.92146188 352.96669388 160.58789158 C355.63153929 158.19597486 358.36110588 155.93049899 361.15028763 153.68554783 C365.14502749 150.46361681 368.95833112 147.11649288 372.71278763 143.62304783 C377.32283099 139.3334967 382.09061719 135.31894111 386.99794388 131.36914158 C389.81952258 129.03474193 392.51869474 126.60314185 395.21278763 124.12304783 C399.66005875 120.02953691 404.25996226 116.19862284 408.96278763 112.40429783 C412.75184169 109.26110525 416.34548115 105.92146188 419.96669388 102.58789158 C422.63153929 100.19597486 425.36110588 97.93049899 428.15028763 95.68554783 C432.14502749 92.46361681 435.95833112 89.11649288 439.71278763 85.62304783 C444.32283099 81.3334967 449.09061719 77.31894111 453.99794388 73.36914158 C456.81952258 71.03474193 459.51869474 68.60314185 462.21278763 66.12304783 C481.43873231 48.51526397 481.43873231 48.51526397 489.18153763 47.93945408 C495.15499191 48.21833523 499.50758788 49.8243992 503.71278763 54.12304783 C507.27268429 59.060969 507.64686414 64.23470276 506.71278763 70.12304783 C502.949707 80.36698953 491.63264885 87.22794206 483.49794388 93.80664158 C480.65747401 96.169052 477.93102863 98.62133811 475.21278763 101.12304783 C470.74293643 105.23683691 466.1223387 109.0939208 461.39638138 112.90820408 C458.76570206 115.07937609 456.23336338 117.3254614 453.71278763 119.62304783 C450.31680081 122.71859979 446.85107232 125.6745599 443.27528763 128.56054783 C438.49850254 132.42363 433.97331881 136.50216218 429.45497513 140.66211033 C426.8126288 143.03344678 424.10584596 145.2755778 421.33778763 147.49804783 C417.13461585 150.88692991 413.15100156 154.43567924 409.21278763 158.12304783 C404.46007808 162.56816346 399.586087 166.77591765 394.51356888 170.85742283 C386.63646141 177.2294205 378.984439 183.88271137 371.29481888 190.47851658 C370.65725662 191.02519993 370.01969437 191.57188328 369.36281204 192.13513279 C367.81270134 193.4643182 366.26272965 194.79366573 364.71278763 196.12304783 C370.60265226 196.19730422 376.49224329 196.25170051 382.38246536 196.28784275 C384.38544335 196.30291248 386.38838843 196.32337193 388.39125443 196.34936619 C391.27325444 196.3858291 394.15481747 196.40279243 397.03700638 196.41601658 C397.92989868 196.43150043 398.82279099 196.44698429 399.74274063 196.46293736 C404.57143469 196.46423915 407.80414682 196.28204145 411.71278763 193.12304783 C414.11946435 190.41829397 414.11946435 190.41829397 416.40028763 187.24804783 C417.2789638 186.07339652 418.15787669 184.89892225 419.03700638 183.72461033 C419.70288773 182.82597263 419.70288773 182.82597263 420.38222122 181.90918064 C422.45900899 179.12133122 424.58643904 176.37316449 426.71278763 173.62304783 C429.30161874 170.26948593 431.87856145 166.90835668 434.42372513 163.52148533 C434.86974075 162.93173923 435.31575638 162.34199314 435.77528763 161.73437595 C437.01585826 160.09320439 438.25120502 158.44808785 439.48622513 156.80273533 C443.42885846 152.05774153 447.62333539 150.20409773 453.37294388 148.20507908 C454.11805725 147.94297138 454.86317062 147.68086369 455.63086319 147.41081333 C457.2071825 146.85988506 458.78490485 146.31295692 460.36391068 145.76977634 C462.74908323 144.94461338 465.12418072 144.09413033 467.499897 143.24218845 C485.82395663 136.81872266 485.82395663 136.81872266 494.58778763 140.24804783 C501.29322252 146.16460803 501.29322252 146.16460803 502.14931107 150.16064548 C502.28206235 152.58362184 502.25088559 154.94836131 502.15028763 157.37304783 C502.12273392 158.27837254 502.09518021 159.18369724 502.06679153 160.11645603 C501.99866928 162.08020475 501.91810964 164.04355269 501.82655716 166.00634861 C501.70904354 169.22561655 501.72057472 172.42926748 501.74013138 175.65039158 C501.55295302 191.18733657 498.23862549 199.77204529 487.63515091 211.01855564 C483.84609672 215.16659312 480.57256389 219.72766332 477.22328568 224.23169041 C474.92950218 227.29543523 472.69303715 230.14334216 470.01747513 232.89257908 C467.13907736 235.99051566 464.73845017 238.73744581 464.69083977 243.16333103 C464.95647687 245.61849536 465.34223785 248.02562727 465.77455521 250.4570322 C465.99579544 251.83385292 465.99579544 251.83385292 466.22150517 253.2384882 C466.53939196 255.20110254 466.86599663 257.16232137 467.20055389 259.12216282 C467.70193058 262.05944259 468.18074264 264.99949478 468.65257645 267.94165134 C469.47635533 273.05277573 470.32342447 278.15972713 471.17830849 283.26573277 C471.73976417 286.62046402 472.29783565 289.9757438 472.85507584 293.33117771 C474.43687194 302.85258292 476.0243968 312.37302932 477.61439896 321.89306736 C478.59381961 327.75869343 479.5693458 333.62495659 480.54250908 339.49162388 C480.91217202 341.71503711 481.28337268 343.93819525 481.65615273 346.16108799 C482.17435783 349.25133039 482.68764499 352.34235269 483.19984818 355.4335947 C483.43122231 356.80183132 483.43122231 356.80183132 483.66727066 358.19770908 C483.8059758 359.04089191 483.94468094 359.88407475 484.08758926 360.75280857 C484.20905665 361.48048183 484.33052404 362.2081551 484.45567226 362.95787907 C484.71278763 365.12304783 484.71278763 365.12304783 484.71278763 370.12304783 C467.22278763 369.79304783 449.73278763 369.46304783 431.71278763 369.12304783 C424.81715572 347.28688013 424.81715572 347.28688013 422.50185013 339.08007908 C422.11505585 337.72205425 422.11505585 337.72205425 421.72044754 336.33659458 C420.9236686 333.53696515 420.13063073 330.73629407 419.33778763 327.93554783 C418.7872585 325.99862719 418.23647836 324.06177788 417.68544388 322.12500095 C416.3583459 317.45849591 415.03459321 312.79105459 413.71278763 308.12304783 C410.50876484 311.31437164 407.33721139 314.53277711 404.19325638 317.78320408 C363.55334772 359.43313513 315.44143226 377.04276455 257.69203568 379.19238377 C255.71278763 379.12304783 255.71278763 379.12304783 252.71278763 378.12304783 C250.93345656 378.01171077 249.15359507 377.90457892 247.37221146 377.83325291 C239.45335849 377.51148324 232.33962508 376.34935386 224.71278763 374.12304783 C223.14441336 373.70399301 221.57534014 373.28754949 220.00575638 372.87304783 C169.72767956 359.36917192 127.71392588 329.08470275 101.33778763 283.83398533 C89.15177015 262.27341286 76.71278763 235.37218132 76.71278763 210.12304783 C65.16278763 210.12304783 53.61278763 210.12304783 41.71278763 210.12304783 C41.71278763 265.23304783 41.71278763 320.34304783 41.71278763 377.12304783 C16.63278763 377.12304783 -8.44721237 377.12304783 -34.28721237 377.12304783 C-34.37541459 333.2319254 -34.44926341 289.34088664 -34.49147369 245.44970093 C-34.49647644 240.26651628 -34.50165374 235.08333181 -34.50693893 229.90014744 C-34.50798818 228.86828014 -34.50903742 227.83641285 -34.51011845 226.77327684 C-34.52751791 210.07117442 -34.55905308 193.36912714 -34.59582356 176.66705742 C-34.63324574 159.52584964 -34.65545093 142.38467071 -34.66356635 125.24342376 C-34.66905146 114.66858337 -34.68636819 104.09389884 -34.71887824 93.51910643 C-34.74004188 86.26499208 -34.74640822 79.01095818 -34.74121788 71.75681522 C-34.73865899 67.57317012 -34.74254798 63.38979716 -34.76403427 59.2062006 C-34.78358788 55.37078786 -34.78442583 51.53582869 -34.77080795 47.70039449 C-34.76833403 45.66651522 -34.78550681 43.63264079 -34.80353761 41.59883994 C-34.71712713 28.28435048 -30.90543298 18.84468319 -21.56064987 9.37304783 C-15.46103459 3.80262292 -8.37085168 -0.00431487 0 0 Z M41.71278763 66.12304783 C41.71278763 92.52304783 41.71278763 118.92304783 41.71278763 146.12304783 C54.58278763 146.12304783 67.45278763 146.12304783 80.71278763 146.12304783 C83.06089252 139.90202588 83.06089252 139.90202588 85.22060013 133.63476658 C92.53299084 111.68624331 102.5674273 91.93932687 116.80263138 73.67382908 C119.02205191 70.80059052 119.02205191 70.80059052 121.71278763 66.12304783 C95.31278763 66.12304783 68.91278763 66.12304783 41.71278763 66.12304783 Z M186.71278763 185.12304783 C186.40985794 185.71472752 186.10692825 186.3064072 185.79481888 186.91601658 C183.25339015 191.70954214 180.87466839 195.54189462 176.71278763 199.12304783 C175.86780716 199.86168064 175.86780716 199.86168064 175.00575638 200.61523533 C166.97280026 207.1921159 157.96564231 209.67823851 147.71278763 210.12304783 C150.63119675 223.75437491 155.41988594 235.69026333 161.71278763 248.12304783 C162.37278763 248.12304783 163.03278763 248.12304783 163.71278763 248.12304783 C163.83653763 248.88617283 163.96028763 249.64929783 164.08778763 250.43554783 C164.59381555 253.32571919 164.59381555 253.32571919 166.71278763 256.12304783 C167.37278763 256.12304783 168.03278763 256.12304783 168.71278763 256.12304783 C169.04278763 257.44304783 169.37278763 258.76304783 169.71278763 260.12304783 C170.37278763 260.12304783 171.03278763 260.12304783 171.71278763 260.12304783 C171.8152681 260.94095798 171.8152681 260.94095798 171.91981888 261.77539158 C176.806551 276.24300738 199.98378192 289.69176693 212.59560013 296.07617283 C222.01148698 300.65281903 231.47043737 303.8856958 241.71278763 306.12304783 C242.73243607 306.34863377 243.7520845 306.5742197 244.80263138 306.80664158 C275.2962048 312.49720547 306.12365434 304.71652255 331.86903763 288.08398533 C342.63741193 280.49167648 355.95732536 270.28580743 361.71278763 258.12304783 C351.47407501 256.22086157 341.16085683 255.02916254 330.82045364 253.83593845 C327.88875245 253.4967131 324.95800213 253.14997614 322.02724075 252.80273533 C320.14513192 252.58353297 318.26297215 252.36476752 316.38075638 252.14648533 C315.08055809 251.99184315 315.08055809 251.99184315 313.75409317 251.83407688 C305.20285066 250.37639322 305.20285066 250.37639322 297.41200638 252.73242283 C296.74813919 253.43882908 296.084272 254.14523533 295.40028763 254.87304783 C290.88106254 259.22318627 286.65600984 261.27792982 280.71278763 263.12304783 C280.06825638 263.3473447 279.42372513 263.57164158 278.75966263 263.80273533 C271.96809664 265.88586271 263.45567714 266.37067767 256.71278763 264.12304783 C255.72278763 264.61804783 255.72278763 264.61804783 254.71278763 265.12304783 C254.38278763 264.46304783 254.05278763 263.80304783 253.71278763 263.12304783 C252.03164918 262.15741121 250.31710432 261.24948626 248.58778763 260.37304783 C238.69285993 255.04304811 233.18055256 248.24594894 226.71278763 239.12304783 C226.25210892 238.47336033 225.79143021 237.82367283 225.31679153 237.15429783 C223.30425878 234.31022344 221.29605575 231.46316685 219.29384232 228.61181736 C215.57479786 223.31987318 211.78606404 218.08510687 207.94350052 212.88232517 C205.3608798 209.38209043 202.8049704 205.86491795 200.27528763 202.32617283 C199.69319534 201.51333836 199.11110306 200.70050388 198.51137161 199.86303806 C197.38022073 198.2813993 196.25197852 196.69767501 195.12709427 195.11157322 C192.53824502 191.49638262 190.01370053 188.13761648 186.71278763 185.12304783 Z " fill="#28235B" transform="translate(59.28721237182617,3.8769521713256836)"/>
<path d="M0 0 C4.04703207 2.62971704 6.41535969 5.3431986 7.9140625 10.015625 C8.83459482 16.16974556 8.29950841 20.91604056 4.6484375 26.0234375 C-1.19468327 32.73513027 -8.40677178 38.12389464 -15.30078125 43.69921875 C-18.14125112 46.06162918 -20.86769649 48.51391528 -23.5859375 51.015625 C-28.0557887 55.12941409 -32.67638643 58.98649797 -37.40234375 62.80078125 C-40.03302307 64.97195327 -42.56536174 67.21803857 -45.0859375 69.515625 C-48.48192432 72.61117696 -51.94765281 75.56713707 -55.5234375 78.453125 C-60.30022259 82.31620717 -64.82540632 86.39473935 -69.34375 90.5546875 C-71.98609633 92.92602395 -74.69287917 95.16815497 -77.4609375 97.390625 C-81.66410927 100.77950709 -85.64772357 104.32825641 -89.5859375 108.015625 C-94.33864704 112.46074063 -99.21263813 116.66849483 -104.28515625 120.75 C-112.16226372 127.12199767 -119.81428613 133.77528854 -127.50390625 140.37109375 C-128.14146851 140.9177771 -128.77903076 141.46446045 -129.43591309 142.02770996 C-130.98602379 143.35689537 -132.53599548 144.6862429 -134.0859375 146.015625 C-128.19607287 146.08988139 -122.30648184 146.14427768 -116.41625977 146.18041992 C-114.41328178 146.19548965 -112.4103367 146.2159491 -110.4074707 146.24194336 C-107.52547069 146.27840627 -104.64390766 146.29536961 -101.76171875 146.30859375 C-100.86882645 146.32407761 -99.97593414 146.33956146 -99.0559845 146.35551453 C-94.22729044 146.35681632 -90.99457831 146.17461862 -87.0859375 143.015625 C-84.67926078 140.31087114 -84.67926078 140.31087114 -82.3984375 137.140625 C-81.51976133 135.96597369 -80.64084844 134.79149942 -79.76171875 133.6171875 C-79.0958374 132.7185498 -79.0958374 132.7185498 -78.41650391 131.80175781 C-76.33971613 129.01390839 -74.21228609 126.26574166 -72.0859375 123.515625 C-69.49710639 120.1620631 -66.92016368 116.80093386 -64.375 113.4140625 C-63.92898438 112.82431641 -63.48296875 112.23457031 -63.0234375 111.62695312 C-61.78286687 109.98578156 -60.54752011 108.34066502 -59.3125 106.6953125 C-55.36986667 101.9503187 -51.17538974 100.09667491 -45.42578125 98.09765625 C-44.68066788 97.83554855 -43.9355545 97.57344086 -43.16786194 97.3033905 C-41.59154263 96.75246223 -40.01382028 96.2055341 -38.43481445 95.66235352 C-36.0496419 94.83719055 -33.6745444 93.9867075 -31.29882812 93.13476562 C-12.97476849 86.71129983 -12.97476849 86.71129983 -4.2109375 90.140625 C2.4944974 96.0571852 2.4944974 96.0571852 3.35058594 100.05322266 C3.48333722 102.47619902 3.45216046 104.84093848 3.3515625 107.265625 C3.32400879 108.17094971 3.29645508 109.07627441 3.26806641 110.0090332 C3.19994415 111.97278192 3.11938451 113.93612986 3.02783203 115.89892578 C2.91031841 119.11819372 2.9218496 122.32184465 2.94140625 125.54296875 C2.75422789 141.07991374 -0.56009964 149.66462246 -11.16357422 160.91113281 C-14.95262841 165.0591703 -18.22616124 169.62024049 -21.57543945 174.12426758 C-23.86922295 177.18801241 -26.10568798 180.03591933 -28.78125 182.78515625 C-31.65964776 185.88309283 -34.06027495 188.63002299 -34.10788536 193.0559082 C-33.84224826 195.51107253 -33.45648728 197.91820444 -33.02416992 200.34960938 C-32.80292969 201.72643009 -32.80292969 201.72643009 -32.57721996 203.13106537 C-32.25933317 205.09367971 -31.9327285 207.05489855 -31.59817123 209.01473999 C-31.09679455 211.95201976 -30.61798249 214.89207195 -30.14614868 217.83422852 C-29.3223698 222.9453529 -28.47530065 228.0523043 -27.62041664 233.15830994 C-27.05896096 236.51304119 -26.50088948 239.86832097 -25.94364929 243.22375488 C-24.36185319 252.74516009 -22.77432833 262.26560649 -21.18432617 271.78564453 C-20.20490552 277.6512706 -19.22937933 283.51753376 -18.25621605 289.38420105 C-17.88655311 291.60761428 -17.51535244 293.83077242 -17.1425724 296.05366516 C-16.6243673 299.14390756 -16.11108014 302.23492987 -15.59887695 305.32617188 C-15.36750282 306.69440849 -15.36750282 306.69440849 -15.13145447 308.09028625 C-14.99274933 308.93346909 -14.85404419 309.77665192 -14.71113586 310.64538574 C-14.58966847 311.37305901 -14.46820108 312.10073227 -14.34305286 312.85045624 C-14.0859375 315.015625 -14.0859375 315.015625 -14.0859375 320.015625 C-31.5759375 319.685625 -49.0659375 319.355625 -67.0859375 319.015625 C-73.98156941 297.1794573 -73.98156941 297.1794573 -76.296875 288.97265625 C-76.68366928 287.61463142 -76.68366928 287.61463142 -77.07827759 286.22917175 C-77.87505653 283.42954232 -78.6680944 280.62887124 -79.4609375 277.828125 C-80.01146663 275.89120436 -80.56224676 273.95435505 -81.11328125 272.01757812 C-82.44037923 267.35107308 -83.76413192 262.68363176 -85.0859375 258.015625 C-88.28996029 261.20694881 -91.46151373 264.42535428 -94.60546875 267.67578125 C-135.2453774 309.3257123 -183.35729286 326.93534173 -241.10668945 329.08496094 C-243.0859375 329.015625 -243.0859375 329.015625 -246.0859375 328.015625 C-247.86526857 327.90428795 -249.64513005 327.79715609 -251.42651367 327.72583008 C-259.34536664 327.40406041 -266.45910004 326.24193103 -274.0859375 324.015625 C-275.65431177 323.59657018 -277.22338499 323.18012666 -278.79296875 322.765625 C-329.07104556 309.26174909 -371.08479925 278.97727992 -397.4609375 233.7265625 C-409.64695498 212.16599003 -422.0859375 185.26475849 -422.0859375 160.015625 C-398.6559375 160.015625 -375.2259375 160.015625 -351.0859375 160.015625 C-348.0859375 169.015625 -348.0859375 169.015625 -346.91015625 172.75390625 C-344.56728746 180.12065862 -341.88910513 186.87923403 -338.22265625 193.72265625 C-337.0859375 196.015625 -337.0859375 196.015625 -337.0859375 198.015625 C-336.4259375 198.015625 -335.7659375 198.015625 -335.0859375 198.015625 C-332.0859375 203.765625 -332.0859375 203.765625 -332.0859375 206.015625 C-331.4259375 206.015625 -330.7659375 206.015625 -330.0859375 206.015625 C-329.7559375 207.005625 -329.4259375 207.995625 -329.0859375 209.015625 C-328.4259375 209.345625 -327.7659375 209.675625 -327.0859375 210.015625 C-326.07380511 211.67495191 -325.07569827 213.34285741 -324.0859375 215.015625 C-307.91192398 235.93830032 -282.57800254 249.44710585 -257.0859375 255.015625 C-255.55646484 255.35400391 -255.55646484 255.35400391 -253.99609375 255.69921875 C-223.50252032 261.38978265 -192.67507079 253.60909972 -166.9296875 236.9765625 C-156.12023602 229.35529193 -145.46370926 220.08228264 -138.0859375 209.015625 C-140.45387824 207.83165463 -142.34198985 207.65730098 -144.9753418 207.35131836 C-145.99367599 207.23126938 -147.01201019 207.1112204 -148.061203 206.98753357 C-149.16635757 206.86145218 -150.27151215 206.73537079 -151.41015625 206.60546875 C-152.54491898 206.47370743 -153.6796817 206.34194611 -154.84883118 206.20619202 C-157.25536843 205.92782147 -159.66212979 205.65138262 -162.0690918 205.37670898 C-165.74141586 204.95678661 -169.4127141 204.52863558 -173.08398438 204.09960938 C-175.4218175 203.83022971 -177.75970645 203.56133394 -180.09765625 203.29296875 C-181.19268967 203.16486313 -182.28772308 203.03675751 -183.41593933 202.9047699 C-192.77926987 201.24939225 -192.77926987 201.24939225 -201.38671875 203.625 C-202.38251953 204.68460937 -202.38251953 204.68460937 -203.3984375 205.765625 C-207.91766259 210.11576344 -212.14271529 212.17050699 -218.0859375 214.015625 C-219.05273438 214.35207031 -219.05273438 214.35207031 -220.0390625 214.6953125 C-229.09728191 217.47367392 -239.55089015 217.18666553 -248.0859375 213.015625 C-259.60116961 206.90178234 -266.43910175 198.21695863 -273.84912109 187.75439453 C-276.40639487 184.15926942 -279.0006519 180.5906277 -281.5859375 177.015625 C-282.72142288 175.44275793 -283.85684103 173.86984234 -284.9921875 172.296875 C-287.35033639 169.03174577 -289.71459771 165.77119319 -292.0859375 162.515625 C-295.72117794 157.52302011 -299.34258977 152.52047934 -302.9609375 147.515625 C-303.81945312 146.32936523 -303.81945312 146.32936523 -304.6953125 145.11914062 C-305.23414063 144.37341797 -305.77296875 143.62769531 -306.328125 142.859375 C-306.8113623 142.19099609 -307.29459961 141.52261719 -307.79248047 140.83398438 C-310.77131817 136.64629407 -311.11625656 135.02238981 -310.41455078 129.92236328 C-310.01668869 126.40308686 -309.87787437 122.89275817 -309.76953125 119.35546875 C-309.73770248 118.33533188 -309.73770248 118.33533188 -309.70523071 117.29458618 C-309.64185127 115.18083699 -309.58255161 113.06699734 -309.5234375 110.953125 C-309.48014995 109.5006411 -309.43653276 108.04816699 -309.39257812 106.59570312 C-309.28595564 103.0691141 -309.18609442 99.54242702 -309.0859375 96.015625 C-318.3259375 96.015625 -327.5659375 96.015625 -337.0859375 96.015625 C-337.0859375 87.67079741 -337.0859375 87.67079741 -334.0859375 83.015625 C-330.2291176 79.26304348 -326.3912698 77.06912858 -320.9140625 76.98046875 C-315.52106649 77.35146344 -312.41117506 78.58246768 -308.0859375 82.015625 C-305.72462157 84.73511807 -303.65965032 87.63601528 -301.5859375 90.578125 C-300.34662145 92.29836967 -299.10703045 94.01841629 -297.8671875 95.73828125 C-297.23941406 96.61629395 -296.61164063 97.49430664 -295.96484375 98.39892578 C-293.04407852 102.46659233 -290.06382713 106.4897029 -287.0859375 110.515625 C-285.92027854 112.09743936 -284.75491481 113.67947132 -283.58984375 115.26171875 C-281.24581733 118.44313111 -278.89922868 121.62263116 -276.55078125 124.80078125 C-270.83900573 132.53414468 -265.14959315 140.28218405 -259.5234375 148.078125 C-258.9967749 148.80741211 -258.4701123 149.53669922 -257.92749023 150.28808594 C-255.12538986 154.17286473 -252.33596095 158.06624777 -249.55859375 161.96875 C-248.97730713 162.78206787 -248.39602051 163.59538574 -247.79711914 164.43334961 C-246.6895043 165.98344149 -245.58557509 167.53617637 -244.48608398 169.09204102 C-241.61313974 173.10551699 -238.68810538 176.63859261 -235.0859375 180.015625 C-234.7559375 180.345625 -234.4259375 180.675625 -234.0859375 181.015625 C-230.68817471 181.69517756 -228.70436223 181.41807516 -225.79296875 179.5234375 C-223.51553559 177.73269887 -221.30197047 175.88131371 -219.0859375 174.015625 C-218.0959375 173.355625 -217.1059375 172.695625 -216.0859375 172.015625 C-216.56418367 165.84876652 -217.23389902 159.73897882 -218.125 153.6171875 C-218.39497803 151.75441162 -218.39497803 151.75441162 -218.67041016 149.85400391 C-218.80753418 148.91733887 -218.9446582 147.98067383 -219.0859375 147.015625 C-218.17416748 147.03246338 -217.26239746 147.04930176 -216.32299805 147.06665039 C-212.88647417 147.10826957 -209.45474308 147.10872599 -206.01831055 147.08276367 C-204.54136828 147.07971181 -203.0642968 147.09230306 -201.58764648 147.12182617 C-191.92256922 147.30208363 -185.61362236 146.25643607 -178.29223633 139.29467773 C-177.56415771 138.54259033 -176.8360791 137.79050293 -176.0859375 137.015625 C-175.06160511 136.09123467 -174.03188288 135.17270154 -172.9921875 134.265625 C-172.198125 133.523125 -171.4040625 132.780625 -170.5859375 132.015625 C-166.13866638 127.92211409 -161.53876287 124.09120001 -156.8359375 120.296875 C-153.04688343 117.15368242 -149.45324398 113.81403905 -145.83203125 110.48046875 C-143.16718584 108.08855203 -140.43761925 105.82307616 -137.6484375 103.578125 C-133.65369764 100.35619399 -129.84039401 97.00907005 -126.0859375 93.515625 C-121.47589414 89.22607387 -116.70810794 85.21151828 -111.80078125 81.26171875 C-108.97920255 78.9273191 -106.28003038 76.49571902 -103.5859375 74.015625 C-99.13866638 69.92211409 -94.53876287 66.09120001 -89.8359375 62.296875 C-86.04688343 59.15368242 -82.45324398 55.81403905 -78.83203125 52.48046875 C-76.16718584 50.08855203 -73.43761925 47.82307616 -70.6484375 45.578125 C-66.65369764 42.35619399 -62.84039401 39.00907005 -59.0859375 35.515625 C-54.47589414 31.22607387 -49.70810794 27.21151828 -44.80078125 23.26171875 C-41.97920255 20.9273191 -39.28003038 18.49571902 -36.5859375 16.015625 C-12.60393242 -5.94792316 -12.60393242 -5.94792316 0 0 Z " fill="#BD1522" transform="translate(558.0859375,53.984375)"/>
<path d="M0 0 C0.772229 0.6199585 0.772229 0.6199585 1.56005859 1.25244141 C13.19362746 10.64620381 25.8900888 21.30835649 34 34 C34 34.99 34 35.98 34 37 C32.54150391 38.40356445 32.54150391 38.40356445 30.4765625 39.86328125 C29.32957886 40.68820068 29.32957886 40.68820068 28.15942383 41.52978516 C27.32306396 42.11808105 26.4867041 42.70637695 25.625 43.3125 C23.86956438 44.57469862 22.11569496 45.83907791 20.36328125 47.10546875 C19.46689941 47.75177246 18.57051758 48.39807617 17.64697266 49.06396484 C13.63447291 51.99876681 9.72156227 55.05451403 5.8125 58.125 C4.33757609 59.27647283 2.86231749 60.42751709 1.38671875 61.578125 C-0.83466682 63.31077597 -3.0558381 65.04367333 -5.27490234 66.77929688 C-7.4673575 68.48794868 -9.66965821 70.18302953 -11.875 71.875 C-12.5352417 72.39336426 -13.1954834 72.91172852 -13.87573242 73.44580078 C-17.27593408 76.03520223 -18.59562526 77 -23 77 C-25.0078125 74.91015625 -25.0078125 74.91015625 -27.125 72.0625 C-45.62159114 48.58143787 -74.81787986 35.22091085 -104.0625 31.625 C-134.62943849 28.48872913 -166.12121149 37.67823219 -190 57 C-193.42117954 59.91228538 -196.72606303 62.92396941 -200 66 C-200.59167969 66.515625 -201.18335938 67.03125 -201.79296875 67.5625 C-205.95535437 71.35907025 -209.15422857 75.78337902 -212.375 80.375 C-212.7970874 80.96804932 -213.2191748 81.56109863 -213.65405273 82.17211914 C-218.85413903 89.7871904 -222.61828395 97.72342524 -227 106 C-251.42 106 -275.84 106 -301 106 C-295.12384789 86.02108284 -295.12384789 86.02108284 -292.25 79 C-291.91202393 78.16952148 -291.57404785 77.33904297 -291.22583008 76.48339844 C-285.5424145 62.82236836 -278.47069531 49.99175651 -269.57089233 38.14871788 C-268.45727087 36.62547004 -267.3980547 35.06176788 -266.37913513 33.47361183 C-261.59204664 26.55641621 -261.59204664 26.55641621 -257.40409851 25.09273911 C-254.3444 24.77097602 -251.42652362 24.76096686 -248.3515625 24.86474609 C-246.63805855 24.86255569 -246.63805855 24.86255569 -244.88993835 24.86032104 C-241.13299195 24.86726051 -237.38107395 24.94489837 -233.625 25.0234375 C-231.01329254 25.04209877 -228.40154996 25.05632865 -225.78979492 25.0663147 C-219.63036596 25.09730816 -213.47272717 25.17924134 -207.31408405 25.27980959 C-199.60947354 25.40287207 -191.90456781 25.45735786 -184.19921875 25.51171875 C-170.46475382 25.60891568 -156.73419111 25.80924735 -143 26 C-143 4.88 -143 -16.24 -143 -38 C-93.42492471 -46.26251255 -38.96388067 -31.47691037 0 0 Z " fill="#BE1522" transform="translate(441,44)"/>
<path d="M0 0 C4.04055896 2.63960406 6.41089276 5.34535685 7.91015625 10.01953125 C8.83068857 16.17365181 8.29560216 20.91994681 4.64453125 26.02734375 C-1.19858952 32.73903652 -8.41067803 38.12780089 -15.3046875 43.703125 C-18.14515737 46.06553543 -20.87160274 48.51782153 -23.58984375 51.01953125 C-28.05969495 55.13332034 -32.68029268 58.99040422 -37.40625 62.8046875 C-40.03692932 64.97585952 -42.56926799 67.22194482 -45.08984375 69.51953125 C-48.48583057 72.61508321 -51.95155906 75.57104332 -55.52734375 78.45703125 C-60.30412884 82.32011342 -64.82931257 86.3986456 -69.34765625 90.55859375 C-71.99000258 92.9299302 -74.69678542 95.17206122 -77.46484375 97.39453125 C-81.66801552 100.78341334 -85.65162982 104.33216266 -89.58984375 108.01953125 C-94.34255329 112.46464688 -99.21654438 116.67240108 -104.2890625 120.75390625 C-112.27676653 127.21536837 -120.03626315 133.96304723 -127.83984375 140.64453125 C-128.44868408 141.16571533 -129.05752441 141.68689941 -129.68481445 142.22387695 C-132.44943179 144.55361941 -132.44943179 144.55361941 -135.08984375 147.01953125 C-136.71659153 147.11293559 -138.34738426 147.13698296 -139.97680664 147.13305664 C-141.01781021 147.13298111 -142.05881378 147.13290558 -143.13136292 147.13282776 C-144.26363815 147.12766647 -145.39591339 147.12250519 -146.5625 147.1171875 C-148.29166908 147.11506508 -148.29166908 147.11506508 -150.05577087 147.11289978 C-153.75465439 147.1072813 -157.45347839 147.09472567 -161.15234375 147.08203125 C-163.65299392 147.07701863 -166.15364504 147.07245531 -168.65429688 147.06835938 C-174.79949963 147.05730587 -180.94466744 147.04054977 -187.08984375 147.01953125 C-180.58959001 140.49369127 -173.8170268 134.37322714 -166.65234375 128.58203125 C-161.87844075 124.72127988 -157.35595947 120.6451605 -152.83984375 116.48828125 C-149.27800146 113.29071829 -145.56418542 110.30564782 -141.83984375 107.30078125 C-138.05078968 104.15758867 -134.45715023 100.8179453 -130.8359375 97.484375 C-128.17109209 95.09245828 -125.4415255 92.82698241 -122.65234375 90.58203125 C-118.65760389 87.36010024 -114.84430026 84.0129763 -111.08984375 80.51953125 C-106.47980039 76.22998012 -101.71201419 72.21542453 -96.8046875 68.265625 C-93.9831088 65.93122535 -91.28393663 63.49962527 -88.58984375 61.01953125 C-84.14257263 56.92602034 -79.54266912 53.09510626 -74.83984375 49.30078125 C-72.00884797 46.95234157 -69.29600777 44.51043223 -66.58984375 42.01953125 C-62.14257263 37.92602034 -57.54266912 34.09510626 -52.83984375 30.30078125 C-50.00884797 27.95234157 -47.29600777 25.51043223 -44.58984375 23.01953125 C-40.10380722 18.89135519 -35.4743141 15.00897751 -30.72265625 11.19140625 C-28.17470461 9.08953516 -25.75941193 6.89185898 -23.33984375 4.64453125 C-16.36768732 -1.53785879 -8.96564333 -4.20631117 0 0 Z " fill="#B1ACA3" transform="translate(558.08984375,53.98046875)"/>
<path d="M0 0 C35.64 0 71.28 0 108 0 C108 39.91891892 108 39.91891892 97.6875 51.625 C84.89168603 62.93292863 73.79372775 64.59437441 57.20703125 64.390625 C55.40671929 64.38315053 53.60639911 64.37746331 51.80607605 64.37347412 C47.10253839 64.35831258 42.3995068 64.31911435 37.69616699 64.2746582 C32.88280072 64.23349916 28.06935147 64.21541934 23.25585938 64.1953125 C13.8370191 64.1526094 4.41855188 64.08447518 -5 64 C-8.64678753 43.07719828 -6.68925435 20.06776306 0 0 Z " fill="#262526" transform="translate(141,150)"/>
<path d="M0 0 C10.7059166 10.06704635 17.93646266 23.98640313 18.5234375 38.76171875 C18.837927 60.01740731 18.837927 60.01740731 14.1875 70.1875 C13.76339844 71.13367188 13.33929688 72.07984375 12.90234375 73.0546875 C9.4031276 80.09210829 4.71716821 85.64806206 -0.8125 91.1875 C-1.37710938 91.76371094 -1.94171875 92.33992187 -2.5234375 92.93359375 C-13.48772336 103.2293256 -29.13598916 107.17089761 -43.8125 107.1875 C-62.0023116 106.13218393 -76.43866161 99.47961435 -89.03515625 86.31640625 C-100.91163526 72.09073359 -104.80602751 54.34622921 -103.8125 36.1875 C-101.62503933 21.71059682 -93.8052435 6.97389463 -82.21582031 -2.05664062 C-56.95709597 -20.39773835 -24.27531323 -20.29777035 0 0 Z M-70.8125 10.1875 C-71.42867188 10.66574219 -72.04484375 11.14398438 -72.6796875 11.63671875 C-81.58211889 19.49064155 -85.64231555 30.99642723 -86.73046875 42.51171875 C-87.04453834 56.58502733 -82.36005086 69.0060728 -72.8125 79.35546875 C-64.28346453 87.47328287 -53.72938897 91.98125903 -41.94140625 92.25390625 C-28.83564737 91.69150047 -17.98293811 85.88470008 -9.125 76.4375 C-0.69423997 66.37063357 2.63446922 54.05807028 2.046875 41.08203125 C0.71953924 29.23700237 -4.32148241 18.29505502 -13.140625 10.16015625 C-31.23669186 -3.20024399 -52.93981854 -3.77765605 -70.8125 10.1875 Z " fill="#565556" transform="translate(461.8125,444.8125)"/>
<path d="M0 0 C4.03269136 3.20094877 6.67455316 6.85698009 9.625 11.04296875 C10.86431605 12.76321342 12.10390705 14.48326004 13.34375 16.203125 C13.97152344 17.0811377 14.59929687 17.95915039 15.24609375 18.86376953 C18.16685898 22.93143608 21.14711037 26.95454665 24.125 30.98046875 C25.29065896 32.56228311 26.45602269 34.14431507 27.62109375 35.7265625 C29.96512017 38.90797486 32.31170882 42.08747491 34.66015625 45.265625 C40.37193177 52.99898843 46.06134435 60.7470278 51.6875 68.54296875 C52.2141626 69.27225586 52.7408252 70.00154297 53.28344727 70.75292969 C56.08554764 74.63770848 58.87497655 78.53109152 61.65234375 82.43359375 C62.23363037 83.24691162 62.81491699 84.06022949 63.41381836 84.89819336 C64.5214332 86.44828524 65.62536241 88.00102012 66.72485352 89.55688477 C69.59779776 93.57036074 72.52283212 97.10343636 76.125 100.48046875 C76.455 100.81046875 76.785 101.14046875 77.125 101.48046875 C80.4793825 102.15134525 82.47523446 101.90641347 85.34765625 100.0234375 C86.87865831 98.80937076 88.39031042 97.57039197 89.87890625 96.3046875 C92.18218653 94.43402334 94.55155542 92.9503624 97.125 91.48046875 C99.40366621 100.91042076 100.69786737 109.78897668 101.125 119.48046875 C105.085 119.81046875 109.045 120.14046875 113.125 120.48046875 C105.8830833 130.00930652 96.94421921 134.72078351 85.125 136.48046875 C71.9383157 137.59222668 62.62490023 134.48781106 52.125 126.48046875 C46.3983119 121.07985542 41.89534947 114.62035252 37.36181641 108.21923828 C34.80454263 104.62411317 32.2102856 101.05547145 29.625 97.48046875 C28.48951462 95.90760168 27.35409647 94.33468609 26.21875 92.76171875 C23.86060111 89.49658952 21.49633979 86.23603694 19.125 82.98046875 C15.48975956 77.98786386 11.86834773 72.98532309 8.25 67.98046875 C7.67765625 67.18962891 7.1053125 66.39878906 6.515625 65.58398438 C5.97679687 64.83826172 5.43796875 64.09253906 4.8828125 63.32421875 C4.3995752 62.65583984 3.91633789 61.98746094 3.41845703 61.29882812 C0.43961933 57.11113782 0.09468094 55.48723356 0.79638672 50.38720703 C1.19424881 46.86793061 1.33306313 43.35760192 1.44140625 39.8203125 C1.46262543 39.14022125 1.4838446 38.46013 1.50570679 37.75942993 C1.56908623 35.64568074 1.62838589 33.53184109 1.6875 31.41796875 C1.73078755 29.96548485 1.77440474 28.51301074 1.81835938 27.06054688 C1.92498186 23.53395785 2.02484308 20.00727077 2.125 16.48046875 C-7.115 16.48046875 -16.355 16.48046875 -25.875 16.48046875 C-25.875 8.13564116 -25.875 8.13564116 -22.875 3.48046875 C-16.28029153 -2.93600436 -8.12956938 -4.29674251 0 0 Z " fill="#AFAAA1" transform="translate(246.875,133.51953125)"/>
<path d="M0 0 C0 20.79 0 41.58 0 63 C-38.28 63 -76.56 63 -116 63 C-115.01 62.505 -115.01 62.505 -114 62 C-113.74089844 61.43667969 -113.48179687 60.87335938 -113.21484375 60.29296875 C-111.53111144 57.11499169 -109.10360331 54.8073289 -106.5625 52.3125 C-106.02608887 51.78285645 -105.48967773 51.25321289 -104.93701172 50.70751953 C-91.32708716 37.44194728 -75.7901786 26.79178697 -59 18 C-58.35788574 17.65727051 -57.71577148 17.31454102 -57.05419922 16.96142578 C-40.19266203 8.06429237 -19.24136742 0 0 0 Z " fill="#272526" transform="translate(298,7)"/>
<path d="M0 0 C1.01578125 -0.01160156 2.0315625 -0.02320313 3.078125 -0.03515625 C11.94238904 -0.00106293 19.83116872 1.64372147 27.5 6.25 C28.3146875 6.72179687 29.129375 7.19359375 29.96875 7.6796875 C32.38828508 9.6990687 32.95686635 11.4484306 34 14.375 C34.99 14.87 34.99 14.87 36 15.375 C36 20.655 36 25.935 36 31.375 C31.05 31.375 26.1 31.375 21 31.375 C20.57682292 29.12890625 20.15364583 26.8828125 19.73046875 24.63671875 C18.91479298 22.11117721 17.94915573 21.11951996 16 19.375 C15.505 18.385 15.505 18.385 15 17.375 C4.38557582 14.58354429 -5.7709049 14.20825322 -16 18.375 C-19.32285479 20.3825581 -20.6468696 21.66873921 -22.375 25.125 C-23.37386745 30.31911075 -23.31177503 34.42849512 -20.3046875 38.890625 C-12.36663021 47.44758167 0.67319854 51.52058934 11.29589844 55.61010742 C22.98622961 60.23568815 32.16953205 66.7397442 38.9375 77.4375 C42.21071428 86.28127772 40.55517546 96.93145828 37 105.375 C36.34 105.375 35.68 105.375 35 105.375 C34.76023437 106.12652344 34.52046875 106.87804687 34.2734375 107.65234375 C31.37004117 113.85991197 23.9317538 117.28595597 17.8125 119.8125 C5.02607447 123.69171504 -11.95054526 123.10498603 -24.3359375 118 C-32.3771348 113.70033666 -38.57606956 108.77318323 -45 102.375 C-43.70293596 99.67972473 -42.30921494 97.16018499 -40.625 94.6875 C-40.22539062 94.08550781 -39.82578125 93.48351562 -39.4140625 92.86328125 C-37.63106503 90.98670104 -36.58614097 90.49885733 -34 90.375 C-32.359375 91.6328125 -32.359375 91.6328125 -30.75 93.5 C-23.20634347 101.50518826 -13.77161373 105.51783672 -2.8125 106.7265625 C5.01824787 106.94630287 11.85606705 106.05068762 17.9375 100.875 C21.89323222 96.08017307 22.57037583 93.262934 22.43359375 87.1640625 C21.72010472 82.57459255 19.58895111 80.18342719 16 77.375 C10.43467499 73.57765009 10.43467499 73.57765009 4 72.375 C4 71.715 4 71.055 4 70.375 C2.845 70.024375 1.69 69.67375 0.5 69.3125 C-14.39943794 64.29894505 -31.14513843 57.94465469 -38.6328125 43.1484375 C-40.20711787 39.31578677 -40.49893559 35.61271635 -40.4375 31.5 C-40.42831543 30.44945435 -40.42831543 30.44945435 -40.41894531 29.37768555 C-40.24466024 23.58941001 -39.09876379 19.22900762 -36 14.375 C-35.46375 13.488125 -34.9275 12.60125 -34.375 11.6875 C-24.75811843 2.32369426 -12.98837784 -0.14834442 0 0 Z " fill="#555356" transform="translate(227,429.625)"/>
<path d="M0 0 C1.01578125 -0.01160156 2.0315625 -0.02320313 3.078125 -0.03515625 C13.9313363 0.00658687 23.30556044 2.72724421 32 9.375 C37.67947681 15.730605 36.28650742 23.28116525 36 31.375 C31.05 31.375 26.1 31.375 21 31.375 C20.7525 29.9725 20.505 28.57 20.25 27.125 C19.31179272 23.05305274 18.60100228 20.77566819 15 18.375 C6.63772331 14.29151032 -2.55386793 14.21901631 -11.4375 16.625 C-16.49260436 18.36953842 -19.91267553 20.20035107 -22.375 25.125 C-23.13325526 29.06792737 -23.39392792 32.56446338 -22 36.375 C-18.6641737 41.10024385 -15.38754375 43.68802814 -10.125 46.125 C-9.44880615 46.45298584 -8.7726123 46.78097168 -8.07592773 47.11889648 C-3.81730706 49.15237721 0.50078297 51.02702272 4.84765625 52.86328125 C5.85521973 53.29092773 6.8627832 53.71857422 7.90087891 54.15917969 C9.87516463 54.9902908 11.85511098 55.80812411 13.84130859 56.61035156 C24.46175601 61.0489127 32.75942323 67.59007717 38.875 77.375 C41.57957119 84.5332064 41.28123101 94.26445977 38.4375 101.3125 C33.53875464 110.43963609 26.3078366 116.82427919 16.4453125 119.984375 C10.82653498 121.60808156 5.51023458 121.87395109 -0.3125 121.8125 C-1.32143311 121.80492676 -2.33036621 121.79735352 -3.36987305 121.78955078 C-20.72653423 121.40716555 -32.64191922 114.207205 -45 102.375 C-43.55575365 99.13638697 -41.74227753 96.75530837 -39.375 94.125 C-38.74335938 93.41859375 -38.11171875 92.7121875 -37.4609375 91.984375 C-36.73777344 91.18773437 -36.73777344 91.18773437 -36 90.375 C-32.92265016 91.75099563 -30.79946159 93.36104856 -28.375 95.6875 C-19.27441966 103.80697689 -8.97324569 106.86751506 3.03125 106.625 C8.97279899 106.12465903 13.37871443 104.7548175 17.9375 100.875 C21.89257996 96.08096369 22.59880562 93.25796142 22.40625 87.15234375 C21.86784421 83.47151187 20.9664674 81.63154356 18.31640625 79.04296875 C10.33940534 73.29899001 0.89861596 69.7254567 -8.11865234 65.96386719 C-21.01001444 60.57895455 -33.75580837 55.0215174 -39.39135742 41.30175781 C-40.41260491 38.06883155 -40.48761372 34.85479012 -40.4375 31.5 C-40.42831543 30.44945435 -40.42831543 30.44945435 -40.41894531 29.37768555 C-40.24466024 23.58941001 -39.09876379 19.22900762 -36 14.375 C-35.46375 13.488125 -34.9275 12.60125 -34.375 11.6875 C-24.75811843 2.32369426 -12.98837784 -0.14834442 0 0 Z " fill="#575656" transform="translate(541,429.625)"/>
<path d="M0 0 C2.56314499 -0.08132187 5.12368418 -0.14064175 7.6875 -0.1875 C8.40873047 -0.21263672 9.12996094 -0.23777344 9.87304688 -0.26367188 C14.51972887 -0.32732505 17.5407213 -0.18819383 21 3 C24.9593156 9.80267181 27.76236547 17.16931274 30.546875 24.5078125 C30.9623761 25.59093719 31.3778772 26.67406189 31.80596924 27.79000854 C33.12539432 31.23321064 34.43772528 34.67906738 35.75 38.125 C36.61413676 40.38168147 37.47871696 42.63819319 38.34375 44.89453125 C40.90832771 51.59162855 43.45782407 58.29436995 46 65 C46.43223877 66.1396521 46.86447754 67.2793042 47.30981445 68.45349121 C48.56894649 71.77775568 49.82432443 75.10340896 51.078125 78.4296875 C51.65007599 79.94068527 51.65007599 79.94068527 52.23358154 81.48220825 C52.58350159 82.41346527 52.93342163 83.34472229 53.29394531 84.30419922 C53.60052063 85.11766815 53.90709595 85.93113708 54.22296143 86.76925659 C54.94143927 88.83188227 55.50968666 90.87293783 56 93 C59.50228345 84.47516666 62.69721639 75.8380463 65.91366577 67.20278931 C71.14633717 53.17153569 76.40929183 39.15038738 81.78253174 25.17230225 C82.38187975 23.60943773 82.97807557 22.04536041 83.57098389 20.4800415 C84.39671321 18.30225585 85.23390695 16.12922438 86.07421875 13.95703125 C86.54432373 12.72960205 87.01442871 11.50217285 87.4987793 10.23754883 C89.28713757 6.38075601 91.32079615 3.24082762 94.765625 0.6953125 C98.07412724 -0.33425638 101.324663 -0.20917652 104.75 -0.125 C105.44738281 -0.11597656 106.14476563 -0.10695313 106.86328125 -0.09765625 C108.57566958 -0.07419888 110.28788004 -0.03833104 112 0 C112 4.62 112 9.24 112 14 C110.9275 14.165 109.855 14.33 108.75 14.5 C105.23777589 15.52766547 105.05836946 15.89944745 103.06225586 19.33813477 C100.53322633 24.81526744 98.40048155 30.45469053 96.25390625 36.08984375 C95.80584625 37.25600723 95.35778625 38.42217072 94.89614868 39.62367249 C93.94097021 42.1107034 92.98716744 44.59820842 92.03573608 47.08666992 C90.55665729 50.95466926 89.0717157 54.82039842 87.58520508 58.68554688 C87.33941932 59.32463297 87.09363356 59.96371906 86.84039974 60.6221714 C86.34566608 61.90847117 85.85090344 63.19475978 85.35611153 64.48103714 C84.61883091 66.39807066 83.88199902 68.31527616 83.14524841 70.23251343 C79.46596942 79.80459422 75.76272546 89.36694077 72.00924683 98.91018677 C71.46353107 100.29801569 70.91886512 101.6862579 70.37527466 103.07492065 C69.64224342 104.94685469 68.90524515 106.81723389 68.16796875 108.6875 C67.56891724 110.20923828 67.56891724 110.20923828 66.95776367 111.76171875 C66 114 66 114 65 115 C63.65732587 115.08631874 62.31025678 115.10706473 60.96484375 115.09765625 C60.15595703 115.09443359 59.34707031 115.09121094 58.51367188 115.08789062 C57.66353516 115.07951172 56.81339844 115.07113281 55.9375 115.0625 C55.08349609 115.05798828 54.22949219 115.05347656 53.34960938 115.04882812 C51.23304337 115.03700373 49.11651315 115.01906769 47 115 C42.7241674 104.96602874 38.75269653 94.81637278 34.78518677 84.65762329 C33.60585677 81.63849257 32.42399059 78.6203627 31.24194336 75.60229492 C27.31202531 65.5567254 23.41531535 55.49989953 19.58984375 45.4140625 C18.90218599 43.60587375 18.21452335 41.79768685 17.52685547 39.98950195 C16.23671139 36.59559337 14.95751688 33.19781537 13.68408203 29.79760742 C13.10355064 28.26727855 12.52267876 26.73707877 11.94140625 25.20703125 C11.68592514 24.51545929 11.43044403 23.82388733 11.16722107 23.11135864 C9.45114792 18.4050725 9.45114792 18.4050725 6 15 C3.03 14.505 3.03 14.505 0 14 C0 9.38 0 4.76 0 0 Z " fill="#575656" transform="translate(4,433)"/>
<path d="M0 0 C5.28 0 10.56 0 16 0 C16 10.56 16 21.12 16 32 C25.57 32 35.14 32 45 32 C45 36.29 45 40.58 45 45 C35.43 45 25.86 45 16 45 C16.09105071 56.4865121 16.09105071 56.4865121 16.20898438 67.97265625 C16.26310614 72.66419394 16.31422283 77.35561733 16.34643555 82.04736328 C16.37263515 85.83419095 16.41315185 89.62063006 16.46318626 93.40721512 C16.47974333 94.84468338 16.49132655 96.28221867 16.49761391 97.71976852 C16.54697527 107.97771588 16.74066363 118.99611631 24 127 C31.43676198 131.93994298 38.27368303 133 47 133 C47 137.95 47 142.9 47 148 C44.33117446 148.38819281 41.68111725 148.72155901 39 149 C38.30261719 149.07992187 37.60523438 149.15984375 36.88671875 149.2421875 C28.0073138 149.79410664 18.78498234 145.55134918 12 140 C3.96565944 132.7690935 0.58432605 124.78510872 -0.34240723 114.02401733 C-0.50735203 109.6021679 -0.45155775 105.18516194 -0.390625 100.76171875 C-0.38314427 99.143628 -0.37746003 97.52552806 -0.37347412 95.90742493 C-0.35836159 91.69379691 -0.31920841 87.48073982 -0.2746582 83.26733398 C-0.23339082 78.94978554 -0.21539664 74.63214286 -0.1953125 70.31445312 C-0.15269624 61.8760137 -0.0824688 53.43814412 0 45 C-5.28 45 -10.56 45 -16 45 C-16 40.71 -16 36.42 -16 32 C-10.72 32 -5.44 32 0 32 C0 21.44 0 10.88 0 0 Z " fill="#565456" transform="translate(297,401)"/>
<path d="M0 0 C11.88 0 23.76 0 36 0 C36.061875 4.90875 36.12375 9.8175 36.1875 14.875 C36.22846802 17.16606689 36.22846802 17.16606689 36.27026367 19.50341797 C36.34698873 32.13747817 34.18817067 41.97559005 25.6875 51.625 C16.35054614 59.87626155 7.82283841 64.64201325 -4.98046875 64.140625 C-5.64691406 64.09421875 -6.31335938 64.0478125 -7 64 C-11.02348536 41.00865506 -7.98646735 21.96278522 0 0 Z " fill="#2A245B" transform="translate(213,150)"/>
<path d="M0 0 C3.87617252 -0.13521532 7.74760989 -0.23423665 11.625 -0.3125 C12.71941406 -0.35439453 13.81382812 -0.39628906 14.94140625 -0.43945312 C24.06050724 -0.57762132 24.06050724 -0.57762132 27.7109375 2.33203125 C31.55589729 6.81344343 31.16136684 11.04971171 31.18945312 16.67822266 C31.19774643 17.56462936 31.20603973 18.45103607 31.21458435 19.36430359 C31.23198395 21.28933553 31.24715102 23.21438864 31.26036072 25.13945389 C31.28136886 28.18127255 31.30839127 31.22298429 31.33703613 34.26473999 C31.40690711 41.81712547 31.46636255 49.36958659 31.52606201 56.92205811 C31.57690124 63.30587712 31.63168792 69.6896378 31.69187927 76.0733757 C31.71854672 79.0786544 31.73930229 82.08393827 31.7598877 85.08926392 C31.77648213 86.91970075 31.79335321 88.7501351 31.81054688 90.58056641 C31.8168235 91.8444796 31.8168235 91.8444796 31.82322693 93.13392639 C31.50660097 96.8721628 31.50660097 96.8721628 33 100 C37.32490853 100.4652292 41.65935537 100.70500473 46 101 C46 105.62 46 110.24 46 115 C41.93678919 115.10795246 37.87644721 115.1873055 33.8125 115.25 C32.66201172 115.28351563 31.51152344 115.31703125 30.32617188 115.3515625 C29.21435547 115.36445312 28.10253906 115.37734375 26.95703125 115.390625 C25.93585205 115.41157227 24.91467285 115.43251953 23.86254883 115.45410156 C20.22869178 114.87764322 18.59413444 113.56203669 16 111 C14.72249002 107.16747007 14.83922269 103.54754917 14.82641602 99.55297852 C14.819729 98.69089783 14.81304199 97.82881714 14.80615234 96.94061279 C14.79210108 95.06796749 14.78020726 93.19530505 14.77020454 91.32263374 C14.75380044 88.35979606 14.73056344 85.39708555 14.70530701 82.43431091 C14.63450987 74.01022672 14.57437022 65.58609105 14.52319336 57.16186523 C14.49141752 52.01011889 14.4501473 46.85851948 14.40299797 41.70689201 C14.38697169 39.74250872 14.37465302 37.77809158 14.36609077 35.81366158 C14.35394859 33.06776107 14.32980388 30.32220668 14.30297852 27.57641602 C14.30238937 26.76329453 14.30180023 25.95017303 14.30119324 25.1124115 C14.30956173 19.71065603 14.30956173 19.71065603 12 15 C9.1213065 14.29464389 9.1213065 14.29464389 5.875 14.25 C3.93625 14.1675 1.9975 14.085 0 14 C0 9.38 0 4.76 0 0 Z " fill="#565556" transform="translate(125,433)"/>
<path d="M0 0 C8.58 0 17.16 0 26 0 C26.02293216 4.80556067 26.04285248 9.61093215 26.05493164 14.41650391 C26.05996621 16.05192711 26.06679427 17.6873458 26.07543945 19.32275391 C26.08754335 21.67090975 26.093237 24.01900619 26.09765625 26.3671875 C26.10281754 27.10057343 26.10797882 27.83395935 26.11329651 28.58956909 C26.11387171 33.77225659 26.11387171 33.77225659 25 36 C24.34 36 23.68 36 23 36 C21.43446223 34.01167512 19.99019197 32.02221715 18.5625 29.9375 C17.66907987 28.65677626 16.7745062 27.37685661 15.87890625 26.09765625 C15.4111377 25.42750488 14.94336914 24.75735352 14.46142578 24.06689453 C11.57430622 19.98364124 8.57484593 15.98120409 5.58032227 11.97631836 C0 4.43996462 0 4.43996462 0 0 Z " fill="#292648" transform="translate(222,151)"/>
<path d="M0 0 C4.95 0 9.9 0 15 0 C15 6.6 15 13.2 15 20 C10.05 20 5.1 20 0 20 C0 13.4 0 6.8 0 0 Z " fill="#575656" transform="translate(140,388)"/>
<path d="" fill="#29235C" transform="translate(0,0)"/>
</svg>
